#N canvas 0 27 1920 984 12;
#X declare -p xbtx;
#X declare -p xbsendtiming;
#X obj 123 87 inlet;
#X obj 325 433 xbsendtiming;
#X obj 62 34 declare -p xbtx;
#X obj 130 171 xbtx;
#X listbox 130 216 112 0 0 0 - - - 0;
#X obj 202 31 declare -p xbsendtiming;
#X obj 1103 45 tgl 50 0 empty empty empty 0 -10 0 12 #fcfcfc #000000 #000000 0 1;
#X obj 1097 106 metro 200;
#X obj 1011 288 pack 232 f;
#X floatatom 1080 188 5 0 0 0 - - - 0;
#X obj 1079 226 mod 13;
#X obj 1130 178 +;
#X obj 1090 144 1;
#X floatatom 1079 251 5 0 0 0 - - - 0;
#X listbox 1210 324 20 0 0 0 - - - 0;
#X obj 1022 254 t b f;
#X obj 1018 343 xbtx;
#X listbox 1189 399 56 0 0 0 - - - 0;
#X listbox 26 522 112 0 0 0 - - - 0;
#X obj 325 458 outlet;
#X obj 396 85 inlet;
#X text 392 62 bpoll toggle;
#X text 71 66 bppp payload (202 \, 13 x uint16);
#X connect 0 0 3 0;
#X connect 1 0 18 0;
#X connect 1 0 19 0;
#X connect 3 0 4 0;
#X connect 3 0 1 0;
#X connect 6 0 7 0;
#X connect 7 0 12 0;
#X connect 8 0 14 0;
#X connect 8 0 16 0;
#X connect 9 0 11 1;
#X connect 9 0 10 0;
#X connect 10 0 13 0;
#X connect 10 0 15 0;
#X connect 11 0 9 0;
#X connect 12 0 11 0;
#X connect 15 0 8 0;
#X connect 15 1 8 1;
#X connect 16 0 17 0;
#X connect 16 0 1 0;
#X connect 20 0 6 0;
